<?xml version="1.0" standalone="no"?>
<!DOCTYPE svg PUBLIC "-//W3C//DTD SVG 20010904//EN"
 "http://www.w3.org/TR/2001/REC-SVG-20010904/DTD/svg10.dtd">
<svg version="1.0" xmlns="http://www.w3.org/2000/svg"
 width="358.000000pt" height="358.000000pt" viewBox="0 0 358.000000 358.000000"
 preserveAspectRatio="xMidYMid meet">
<metadata>
Created by potrace 1.14, written by Peter Selinger 2001-2017
</metadata>
<g transform="translate(0.000000,358.000000) scale(0.100000,-0.100000)"
fill="#000000" stroke="none">
<path d="M1707 3552 c-3 -4 -2 -16 1 -27 2 -11 7 -95 9 -187 4 -145 3 -168
-10 -168 -20 0 -27 -20 -15 -43 12 -23 2 -54 -18 -54 -32 0 -63 83 -79 212 -4
27 -10 70 -15 94 -4 25 -7 69 -5 98 3 44 1 53 -13 53 -38 -1 -45 -14 -29 -61
8 -24 18 -69 21 -99 24 -209 24 -243 2 -265 -9 -10 -18 -16 -20 -14 -11 14
-48 193 -47 232 0 36 -4 47 -16 47 -10 0 -14 6 -10 20 4 17 0 20 -28 20 -41 0
-51 -14 -32 -43 15 -23 35 -80 42 -119 3 -13 8 -34 11 -48 3 -14 7 -54 9 -88
3 -35 7 -72 10 -83 4 -10 2 -19 -4 -19 -16 0 -26 23 -22 52 2 24 -1 28 -23 28
-14 0 -29 -7 -34 -16 -7 -13 -11 -12 -24 8 -8 13 -29 59 -47 103 -18 44 -36
89 -41 100 -15 32 -39 117 -43 148 -2 15 -5 28 -8 28 -9 1 -59 -13 -59 -17 0
-3 11 -22 25 -43 32 -48 113 -279 120 -344 6 -46 5 -48 -14 -37 -11 5 -26 9
-33 8 -8 -2 -40 52 -81 132 -60 121 -74 156 -76 197 -1 9 -9 9 -31 2 -31 -11
-38 -23 -20 -34 17 -11 60 -92 102 -192 57 -140 60 -152 38 -150 -14 1 -22 14
-31 50 -12 51 -19 54 -71 32 -14 -6 -19 1 -29 38 -9 37 -14 44 -31 39 -31 -8
-33 -30 -3 -60 25 -24 105 -166 114 -201 2 -12 0 -11 -13 1 -8 9 -20 18 -24
20 -21 7 -172 233 -187 278 -13 39 -19 47 -35 43 -43 -11 -45 -32 -8 -71 32
-33 148 -204 148 -217 0 -3 10 -19 22 -35 28 -39 18 -47 -29 -23 -43 22 -211
222 -244 291 -23 46 -26 48 -51 28 -24 -18 -23 -23 12 -52 32 -28 178 -221
204 -272 12 -23 14 -38 7 -50 -8 -14 -24 -2 -105 83 -52 55 -103 115 -113 133
-19 36 -34 40 -54 16 -11 -14 -9 -19 15 -37 36 -26 59 -49 116 -116 25 -29 55
-65 68 -80 36 -41 64 -100 57 -122 -8 -23 -18 -24 -35 -4 -14 17 -37 20 -42 4
-5 -14 -74 42 -112 91 -29 39 -56 52 -56 29 0 -8 -5 -7 -15 1 -13 10 -19 10
-35 -5 -30 -27 -24 -42 28 -69 26 -14 70 -46 97 -72 l50 -46 -40 22 c-68 38
-240 167 -272 204 -35 41 -43 44 -61 16 -7 -11 -18 -20 -25 -20 -8 0 -19 -11
-25 -25 -9 -19 -9 -25 1 -25 36 0 254 -155 315 -224 37 -43 45 -92 12 -83 -16
4 -20 0 -20 -18 0 -13 7 -26 16 -29 30 -11 3 -26 -37 -20 -22 4 -39 2 -39 -3
0 -15 23 -33 42 -33 21 0 24 -16 4 -23 -16 -6 -174 62 -213 93 -26 20 -28 20
-40 4 -19 -26 -11 -38 28 -45 69 -11 207 -89 157 -89 -46 1 -268 81 -321 116
-27 18 -42 22 -51 15 -7 -6 -17 -6 -26 -1 -8 6 -18 10 -21 10 -5 0 -29 -45
-29 -54 0 -2 22 -6 49 -10 35 -5 50 -11 54 -25 3 -13 17 -20 50 -24 63 -9 224
-71 253 -98 12 -12 28 -35 33 -51 l11 -30 -35 6 c-31 6 -35 4 -35 -13 0 -15 9
-23 33 -29 l32 -8 -32 -7 c-38 -7 -44 -26 -10 -28 12 -1 26 -1 30 0 5 1 7 -4
5 -11 -5 -14 -47 -12 -62 3 -20 19 -46 10 -46 -16 0 -22 4 -25 40 -25 23 0 40
-5 40 -11 0 -14 -192 -5 -255 12 -73 19 -80 18 -79 -17 2 -30 0 -32 -30 -28
-17 2 -48 9 -69 16 -20 6 -39 9 -41 7 -6 -6 -8 -30 -7 -81 1 -46 1 -47 30 -38
75 21 431 -20 431 -50 0 -6 -153 -4 -240 2 -33 3 -35 1 -35 -27 0 -27 3 -30
30 -27 17 2 75 5 130 8 74 3 95 2 83 -6 -37 -23 -13 -55 33 -43 15 4 20 3 15
-6 -4 -6 -11 -9 -15 -6 -5 2 -17 -2 -27 -10 -18 -14 -18 -16 -2 -29 10 -7 18
-18 18 -24 0 -10 -94 -23 -140 -19 -19 1 -26 -3 -28 -20 -4 -26 -43 -37 -137
-38 -65 0 -77 -8 -68 -42 5 -21 2 -23 -37 -23 -39 0 -42 -2 -36 -22 3 -13 6
-26 6 -31 0 -4 16 -1 35 7 35 15 192 50 275 61 66 10 126 8 147 -4 16 -9 14
-12 -18 -25 -73 -31 -275 -87 -318 -89 -48 -2 -60 -20 -36 -53 11 -16 14 -16
41 3 16 11 56 27 89 36 33 9 87 24 120 33 64 17 205 25 205 12 0 -4 -9 -13
-20 -20 -23 -15 -27 -38 -6 -38 22 0 31 -21 15 -34 -8 -6 -19 -20 -25 -31 -19
-34 -76 -60 -141 -64 -7 -1 -13 -10 -13 -21 0 -14 -9 -21 -34 -26 -19 -3 -37
-11 -39 -18 -5 -12 -67 -39 -119 -50 -25 -6 -26 -8 -16 -31 10 -23 38 -35 38
-17 0 12 97 64 112 60 7 -2 27 7 43 18 17 12 36 19 43 17 7 -3 24 5 37 17 23
21 101 50 127 46 8 -1 25 -11 38 -23 12 -12 27 -20 32 -17 5 4 4 -3 -3 -14
-17 -27 -8 -35 25 -22 25 9 26 8 16 -11 -17 -31 -216 -175 -292 -212 -37 -17
-68 -37 -68 -43 0 -6 9 -19 20 -29 19 -17 20 -16 45 13 45 54 315 223 315 198
0 -13 -46 -86 -60 -96 -10 -7 -109 -91 -139 -119 -38 -34 -103 -77 -128 -85
-27 -9 -28 -14 -7 -44 l15 -22 26 30 26 31 19 -21 c25 -26 32 -25 53 6 9 15
33 40 53 58 19 17 41 37 48 44 11 10 18 10 37 -3 23 -15 25 -14 40 9 17 26 46
57 88 94 28 25 61 21 57 -7 -2 -11 5 -16 25 -17 36 -1 40 -6 28 -35 -13 -33
-137 -166 -161 -174 -22 -7 -26 -35 -8 -53 22 -22 45 -13 62 27 22 47 130 169
138 155 15 -24 -153 -277 -224 -339 l-38 -32 45 -41 c25 -23 50 -42 54 -42 5
0 14 15 20 33 14 41 123 195 189 267 l32 35 -37 -64 c-21 -35 -57 -86 -80
-111 -41 -46 -42 -48 -23 -65 23 -21 36 -14 45 23 9 38 148 235 168 238 24 3
21 -5 -10 -38 -25 -26 -26 -30 -11 -45 21 -20 48 -10 48 19 0 13 5 30 10 38 8
11 9 7 4 -15 -7 -29 -7 -30 13 -12 24 21 34 22 27 3 -8 -21 12 -28 31 -10 9 9
17 15 19 13 26 -38 35 -64 34 -96 -1 -51 -53 -198 -88 -250 -24 -35 -26 -44
-15 -53 11 -9 12 -17 2 -38 -6 -15 -17 -33 -24 -40 -19 -20 -16 -31 14 -43 29
-11 46 2 36 28 -3 8 2 13 15 13 15 0 21 9 25 44 4 25 27 101 53 171 45 121 75
177 89 163 8 -7 -30 -147 -53 -195 -14 -30 -14 -35 -2 -43 25 -16 35 -5 42 47
10 70 66 236 67 200 1 -26 3 -27 41 -22 23 3 40 1 40 -5 0 -6 13 -10 30 -10
48 0 64 -35 63 -143 0 -120 -11 -251 -23 -283 -17 -43 -12 -54 20 -54 17 0 30
5 30 11 0 6 8 8 18 5 29 -9 43 7 33 40 -13 47 1 325 19 367 11 25 7 -125 -5
-180 -5 -27 -3 -33 12 -34 29 -2 48 2 51 12 2 5 13 9 24 9 17 0 19 4 13 27
-11 39 -15 217 -6 231 4 7 17 14 29 17 31 6 68 -53 81 -130 6 -33 13 -73 16
-90 4 -16 9 -72 12 -122 6 -94 10 -101 46 -87 13 5 14 10 2 38 -8 18 -17 55
-20 82 -4 27 -8 59 -10 71 -11 66 -16 193 -8 193 31 0 110 -265 117 -389 2
-49 5 -56 22 -53 40 6 45 11 35 31 -15 26 -39 100 -45 136 -2 17 -12 68 -20
115 -9 47 -16 103 -16 125 0 46 14 75 29 60 17 -19 91 -268 93 -316 2 -48 7
-54 38 -49 33 5 41 21 22 49 -21 30 -40 74 -52 123 -5 18 -18 68 -29 112 -26
96 -26 95 -2 89 11 -3 25 -19 31 -36 7 -18 16 -41 20 -52 13 -30 24 -68 26
-87 1 -10 2 -22 3 -28 2 -16 41 -12 47 5 3 8 -3 27 -14 42 -31 45 -31 57 0 70
31 13 36 34 12 54 -18 15 -58 89 -51 95 21 22 181 -258 194 -341 7 -41 22 -52
52 -35 21 11 21 11 -8 48 -44 57 -132 266 -138 330 -6 52 -5 54 14 44 11 -6
34 -27 50 -45 44 -50 162 -249 180 -304 20 -60 16 -56 47 -42 32 15 32 18 3
49 -61 66 -227 400 -186 375 5 -4 9 -13 9 -21 0 -21 38 -17 45 6 4 14 -1 26
-20 42 -18 16 -24 29 -19 41 3 10 10 17 15 15 19 -6 180 -216 204 -265 24 -49
27 -52 50 -41 27 12 39 34 25 43 -6 4 -10 13 -10 21 0 8 -16 29 -36 46 -35 31
-167 209 -160 216 23 23 228 -163 304 -276 l35 -53 21 21 21 21 -21 17 c-59
47 -74 62 -124 121 -30 35 -68 78 -83 95 -33 37 -67 104 -67 134 0 27 36 22
58 -9 9 -13 21 -19 33 -16 27 7 234 -164 282 -233 14 -20 20 -23 35 -14 30 19
23 38 -25 69 -26 16 -69 50 -96 75 -157 145 -192 186 -176 206 9 11 7 15 -5
20 -9 3 -16 10 -16 15 0 15 68 -31 104 -71 41 -46 75 -44 67 3 -2 10 8 5 74
-42 28 -20 62 -49 77 -65 22 -26 28 -28 42 -17 26 22 19 36 -30 59 -37 18
-145 92 -164 112 -3 3 -24 20 -47 38 -38 30 -73 80 -73 104 0 5 44 -14 98 -43
132 -70 171 -95 212 -135 36 -35 47 -34 67 3 14 25 13 26 -53 49 -26 9 -75 34
-107 55 -32 22 -61 39 -63 39 -7 0 -68 44 -76 55 -13 17 -9 26 10 24 37 -3 44
1 39 22 -5 20 -3 21 36 15 37 -6 68 -18 192 -72 17 -7 43 -17 58 -23 15 -6 53
-27 83 -46 31 -20 57 -35 59 -33 12 15 24 48 18 51 -5 3 -28 10 -53 17 -48 13
-292 128 -325 154 -20 15 -20 15 1 16 44 0 283 -91 331 -126 l32 -24 11 21
c16 29 7 46 -27 47 -44 1 -115 32 -109 48 6 17 -6 25 -47 30 -57 8 -177 58
-201 84 -23 25 -43 81 -29 79 5 0 17 -4 28 -8 11 -5 25 -5 31 0 7 6 29 -1 57
-17 l47 -26 11 26 c19 41 7 53 -64 58 -35 3 -72 10 -82 15 -17 10 -16 12 7 27
21 14 35 15 101 6 41 -6 86 -13 99 -15 13 -3 43 -8 67 -11 51 -7 118 -29 137
-45 11 -9 16 -5 24 16 16 42 8 50 -51 50 -69 1 -300 45 -293 57 7 12 180 2
316 -18 21 -3 40 -5 43 -5 3 1 18 -5 34 -13 33 -18 41 -13 41 25 0 26 -1 27
-50 24 -56 -4 -330 32 -344 45 -5 5 6 7 25 5 19 -2 70 -6 115 -9 45 -3 99 -12
122 -20 45 -16 52 -13 52 23 0 26 0 26 -82 25 -46 -1 -100 1 -121 3 -35 5 -37
7 -22 23 21 23 9 53 -18 44 -18 -6 -51 -6 -137 -2 -14 1 -30 16 -30 29 0 3 14
4 30 1 25 -4 30 -1 30 17 0 11 -5 21 -10 21 -6 0 -9 3 -9 8 3 19 -2 33 -10 27
-5 -3 -12 4 -16 15 -3 11 -13 20 -22 20 -11 0 -13 3 -5 13 6 6 10 17 10 22 0
20 78 37 181 40 94 3 106 5 112 23 10 25 27 30 109 30 l65 -1 1 34 c1 19 -3
42 -8 52 -8 15 -12 16 -36 3 -15 -8 -44 -17 -65 -21 -33 -6 -37 -5 -37 13 0
32 -14 34 -77 13 -60 -20 -95 -26 -200 -37 -54 -6 -63 -5 -63 10 0 9 -7 16
-15 16 -23 0 -18 17 8 24 12 3 39 6 60 6 29 0 37 4 37 18 0 36 -20 41 -63 16
-23 -13 -49 -24 -57 -23 -8 0 -4 5 9 10 17 7 21 12 13 22 -8 9 -6 16 9 25 24
15 15 36 -12 29 -12 -3 -19 0 -19 9 0 8 -7 14 -15 14 -23 0 -18 17 19 58 38
42 216 137 278 148 21 3 47 15 59 25 12 10 32 19 45 19 18 0 22 4 17 18 -14
39 -23 42 -61 22 -20 -11 -44 -20 -53 -20 -9 0 -24 -9 -34 -20 -10 -11 -24
-20 -31 -20 -7 0 -14 -4 -16 -8 -6 -16 -177 -82 -220 -85 -64 -6 -93 5 -93 34
0 18 -6 25 -24 27 -13 2 -19 7 -13 11 6 3 12 13 14 21 4 20 29 39 51 40 22 0
23 38 0 47 -10 4 -24 -2 -38 -18 -12 -13 -31 -30 -43 -37 -19 -10 -23 -10 -29
3 -3 9 -1 21 6 28 6 6 11 18 11 28 0 19 137 135 197 165 l42 22 -19 25 -19 24
27 24 c15 13 42 31 60 39 l33 15 -35 40 -35 40 -58 -64 c-56 -61 -60 -63 -82
-50 -21 13 -24 12 -39 -11 -9 -14 -47 -55 -85 -92 -70 -70 -102 -83 -127 -53
-9 11 -17 12 -31 4 -33 -17 -41 1 -14 33 14 16 25 33 25 38 0 15 -21 23 -33
11 -17 -17 -23 -13 -23 16 0 19 13 40 44 70 37 36 42 46 32 58 -19 23 -36 18
-49 -13 -19 -45 -48 -85 -55 -74 -8 14 122 209 169 254 l38 36 -27 17 c-15 10
-28 16 -29 14 -1 -2 -12 -24 -24 -49 -20 -43 -153 -231 -153 -216 0 27 151
266 193 306 32 30 33 41 6 58 -25 16 -21 19 -47 -40 -20 -46 -143 -226 -191
-280 -39 -44 -45 -32 -13 25 16 28 42 75 57 102 31 57 62 102 87 127 23 23 23
34 -4 52 -16 12 -25 13 -35 4 -7 -6 -11 -13 -9 -15 8 -9 -42 -111 -100 -206
-60 -96 -69 -107 -95 -107 -31 0 -28 29 7 71 33 40 34 43 18 60 -19 22 -52 25
-59 7 -3 -7 -7 -26 -9 -43 -4 -33 -23 -85 -30 -85 -3 0 -2 16 1 35 3 21 1 35
-5 35 -12 0 -22 -24 -22 -51 0 -28 -19 -23 -31 8 -8 22 -5 44 15 108 14 45 36
98 50 117 23 35 23 51 -1 59 -8 3 -1 28 22 76 33 72 33 81 -4 88 -16 3 -19 -5
-24 -50 -3 -29 -10 -61 -15 -71 -6 -11 -27 -64 -47 -119 -20 -55 -43 -111 -51
-125 -14 -24 -15 -22 -10 31 8 82 64 287 91 336 l23 42 -21 8 c-42 14 -44 12
-50 -51 -4 -33 -27 -125 -52 -203 -36 -112 -53 -150 -79 -178 -18 -19 -38 -35
-43 -35 -6 0 -8 21 -5 50 4 42 2 50 -12 50 -12 0 -15 7 -11 28 2 15 7 50 9 77
8 73 16 105 38 148 l19 37 -23 9 c-46 17 -53 9 -54 -65 -2 -98 -47 -334 -64
-334 -31 0 -36 276 -6 373 14 47 14 48 -7 56 -32 13 -36 6 -33 -57 2 -31 0
-79 -3 -107 -5 -41 -10 -50 -26 -51 -39 -2 -46 -4 -41 -12 11 -18 16 -94 7
-110 -6 -9 -11 -13 -11 -8 0 5 -6 3 -14 -3 -17 -14 -25 3 -34 74 -8 60 -9 322
-2 350 4 15 -1 20 -22 21 -15 2 -29 0 -31 -4z m158 -397 c-3 -26 -9 -45 -12
-42 -2 3 -1 26 2 52 4 25 10 44 12 41 3 -3 2 -26 -2 -51z m-695 -217 c0 -15
-8 -8 -29 28 -29 48 -26 55 4 14 14 -19 25 -38 25 -42z m1814 -49 c-10 -12
-32 -30 -49 -41 -19 -13 -14 -5 15 21 48 44 65 54 34 20z m-2429 -123 c22 -17
47 -36 55 -43 8 -7 32 -26 54 -43 64 -50 31 -34 -67 32 -110 73 -146 100 -146
111 -1 11 58 -21 104 -57z m2350 -1 c-33 -30 -64 -55 -69 -55 -5 0 17 25 50
55 32 30 64 55 69 54 6 0 -17 -24 -50 -54z m-2157 -20 c16 -14 37 -32 48 -39
10 -8 17 -17 14 -19 -3 -3 -27 15 -55 39 -27 24 -47 44 -42 44 4 0 20 -11 35
-25z m2541 -629 c-2 -2 -26 -7 -54 -10 -27 -4 -58 -9 -67 -12 -10 -3 -18 -3
-18 0 0 9 63 24 104 25 22 1 37 -1 35 -3z m-2828 -115 c18 -8 1 -9 -66 -6 -49
2 -100 4 -112 5 -13 0 -23 5 -23 11 0 14 162 5 201 -10z m-83 -42 c101 -13
123 -26 38 -23 -185 8 -286 20 -286 36 0 11 107 5 248 -13z m2775 -209 c4 0 7
-4 7 -9 0 -8 -28 -7 -80 4 -8 2 -19 4 -25 4 -5 1 -4 5 4 10 7 5 29 5 50 0 20
-5 39 -9 44 -9z m-2748 -150 c-3 -5 -14 -10 -23 -9 -14 0 -13 2 3 9 27 11 27
11 20 0z m-45 -10 c0 -8 -130 -33 -137 -26 -3 3 12 9 33 15 74 18 104 22 104
11z m2520 -558 c9 -8 -1 -6 -26 6 -22 11 -47 29 -55 38 -11 14 -5 13 26 -5 22
-13 47 -31 55 -39z m-2195 -90 c-54 -49 -145 -116 -151 -109 -5 4 175 147 186
147 3 0 -13 -17 -35 -38z m307 -174 c-51 -94 -161 -246 -187 -261 -41 -23 87
173 173 266 33 35 36 34 14 -5z m1237 -133 l0 -20 -8 20 c-4 11 -11 34 -14 50
l-6 30 14 -30 c8 -16 14 -39 14 -50z m-432 -121 c1 -49 -2 -82 -7 -79 -5 3 -8
44 -8 91 1 108 11 101 15 -12z m-110 -151 c-3 -65 -11 -129 -16 -143 -9 -19
-10 3 -5 85 4 61 8 121 10 135 1 14 3 28 3 33 1 4 4 7 7 7 3 0 4 -53 1 -117z"/>
</g>
</svg>
